<svg xmlns="http://www.w3.org/2000/svg" xmlns:xlink="http://www.w3.org/1999/xlink" width="500" zoomAndPan="magnify" viewBox="0 0 375 374.999991" height="500" preserveAspectRatio="xMidYMid meet" version="1.0"><defs><g/></defs><rect x="-37.5" width="450" fill="#ffffff" y="-37.499999" height="449.999989" fill-opacity="1"/><rect x="-37.5" width="450" fill="#e4e2dd" y="-37.499999" height="449.999989" fill-opacity="1"/><g fill="#292929" fill-opacity="1"><g transform="translate(128.460934, 162.869411)"><g><path d="M 0.921875 0 L 19.3125 0 L 19.3125 -61.265625 L 0.921875 -61.265625 Z M 0.921875 0 "/></g></g></g><g fill="#292929" fill-opacity="1"><g transform="translate(142.687501, 162.869411)"><g/></g></g><g fill="#292929" fill-opacity="1"><g transform="translate(156.300823, 162.869411)"><g><path d="M 0.921875 -61.265625 L 0.921875 0 L 16.25 0 L 16.25 -23.484375 L 26.671875 0 L 42.078125 0 L 42.078125 -61.265625 L 26.734375 -61.265625 L 26.734375 -37.53125 L 16.1875 -61.265625 Z M 0.921875 -61.265625 "/></g></g></g><g fill="#292929" fill-opacity="1"><g transform="translate(193.278675, 162.869411)"><g><path d="M 24.53125 0.921875 C 38.390625 0.921875 48.453125 -8.703125 48.453125 -23 C 48.453125 -37.28125 38.390625 -46.921875 24.53125 -46.921875 C 10.296875 -46.921875 0.609375 -36.921875 0.609375 -23 C 0.609375 -8.703125 10.671875 0.921875 24.53125 0.921875 Z M 19.3125 -23.0625 C 19.3125 -26.25 21.40625 -28.328125 24.53125 -28.328125 C 27.65625 -28.328125 29.8125 -26.25 29.8125 -23.0625 C 29.8125 -19.9375 27.65625 -17.84375 24.53125 -17.84375 C 21.34375 -17.84375 19.3125 -19.9375 19.3125 -23.0625 Z M 19.3125 -23.0625 "/></g></g></g><g fill="#292929" fill-opacity="1"><g transform="translate(128.460934, 253.825253)"><g><path d="M 1.34375 -89.078125 L 1.34375 0 L 49.140625 0 L 49.140625 -26.75 L 28.09375 -26.75 L 28.09375 -89.171875 Z M 1.34375 -89.078125 "/></g></g></g><g fill="#292929" fill-opacity="1"><g transform="translate(178.92996, 253.825253)"><g><path d="M 26.9375 0 L 28.71875 -8.46875 L 44.234375 -8.46875 L 46.109375 0 L 73.03125 0 L 49.9375 -89.078125 L 23 -89.078125 L 0 0 Z M 36.46875 -44.59375 L 39.5 -30.765625 L 33.53125 -30.765625 Z M 36.46875 -44.59375 "/></g></g></g><g fill="#292929" fill-opacity="1"><g transform="translate(229.568018, 106.644684)"><g><path d="M 1.234375 -0.375 C 1.234375 -0.269531 1.191406 -0.179688 1.109375 -0.109375 C 1.035156 -0.0351562 0.945312 0 0.84375 0 C 0.726562 0 0.632812 -0.0351562 0.5625 -0.109375 C 0.5 -0.179688 0.46875 -0.269531 0.46875 -0.375 L 0.46875 -3.9375 C 0.46875 -4.050781 0.503906 -4.144531 0.578125 -4.21875 C 0.648438 -4.289062 0.742188 -4.328125 0.859375 -4.328125 C 0.960938 -4.328125 1.050781 -4.289062 1.125 -4.21875 C 1.195312 -4.144531 1.234375 -4.050781 1.234375 -3.9375 Z M 1.234375 -0.375 "/></g></g></g><g fill="#292929" fill-opacity="1"><g transform="translate(230.925983, 106.644684)"><g><path d="M 3.296875 -4.328125 C 3.410156 -4.328125 3.5 -4.289062 3.5625 -4.21875 C 3.632812 -4.15625 3.671875 -4.070312 3.671875 -3.96875 C 3.671875 -3.851562 3.632812 -3.765625 3.5625 -3.703125 C 3.5 -3.640625 3.410156 -3.609375 3.296875 -3.609375 L 2.328125 -3.609375 L 2.328125 -0.375 C 2.328125 -0.269531 2.285156 -0.179688 2.203125 -0.109375 C 2.128906 -0.0351562 2.035156 0 1.921875 0 C 1.804688 0 1.710938 -0.0351562 1.640625 -0.109375 C 1.566406 -0.179688 1.53125 -0.269531 1.53125 -0.375 L 1.53125 -3.609375 L 0.5625 -3.609375 C 0.445312 -3.609375 0.351562 -3.640625 0.28125 -3.703125 C 0.21875 -3.773438 0.1875 -3.863281 0.1875 -3.96875 C 0.1875 -4.070312 0.222656 -4.15625 0.296875 -4.21875 C 0.367188 -4.289062 0.457031 -4.328125 0.5625 -4.328125 Z M 3.296875 -4.328125 "/></g></g></g><g fill="#292929" fill-opacity="1"><g transform="translate(234.450522, 106.644684)"><g/></g></g><g fill="#292929" fill-opacity="1"><g transform="translate(235.839356, 106.644684)"><g><path d="M 3.53125 -4.328125 C 3.632812 -4.328125 3.71875 -4.289062 3.78125 -4.21875 C 3.851562 -4.144531 3.890625 -4.054688 3.890625 -3.953125 L 3.890625 -1.71875 C 3.890625 -1.375 3.816406 -1.066406 3.671875 -0.796875 C 3.523438 -0.535156 3.320312 -0.332031 3.0625 -0.1875 C 2.800781 -0.0390625 2.503906 0.03125 2.171875 0.03125 C 1.835938 0.03125 1.539062 -0.0390625 1.28125 -0.1875 C 1.019531 -0.332031 0.816406 -0.535156 0.671875 -0.796875 C 0.535156 -1.066406 0.46875 -1.375 0.46875 -1.71875 L 0.46875 -3.953125 C 0.46875 -4.054688 0.503906 -4.144531 0.578125 -4.21875 C 0.648438 -4.289062 0.742188 -4.328125 0.859375 -4.328125 C 0.953125 -4.328125 1.035156 -4.289062 1.109375 -4.21875 C 1.191406 -4.144531 1.234375 -4.054688 1.234375 -3.953125 L 1.234375 -1.71875 C 1.234375 -1.519531 1.273438 -1.34375 1.359375 -1.1875 C 1.441406 -1.03125 1.554688 -0.910156 1.703125 -0.828125 C 1.847656 -0.742188 2.003906 -0.703125 2.171875 -0.703125 C 2.347656 -0.703125 2.515625 -0.742188 2.671875 -0.828125 C 2.828125 -0.910156 2.953125 -1.03125 3.046875 -1.1875 C 3.140625 -1.34375 3.1875 -1.519531 3.1875 -1.71875 L 3.1875 -3.953125 C 3.1875 -4.054688 3.21875 -4.144531 3.28125 -4.21875 C 3.34375 -4.289062 3.425781 -4.328125 3.53125 -4.328125 Z M 3.53125 -4.328125 "/></g></g></g><g fill="#292929" fill-opacity="1"><g transform="translate(239.851524, 106.644684)"><g><path d="M 1.234375 -0.375 C 1.234375 -0.269531 1.191406 -0.179688 1.109375 -0.109375 C 1.035156 -0.0351562 0.945312 0 0.84375 0 C 0.726562 0 0.632812 -0.0351562 0.5625 -0.109375 C 0.5 -0.179688 0.46875 -0.269531 0.46875 -0.375 L 0.46875 -3.9375 C 0.46875 -4.050781 0.503906 -4.144531 0.578125 -4.21875 C 0.648438 -4.289062 0.742188 -4.328125 0.859375 -4.328125 C 0.960938 -4.328125 1.050781 -4.289062 1.125 -4.21875 C 1.195312 -4.144531 1.234375 -4.050781 1.234375 -3.9375 Z M 1.234375 -0.375 "/></g></g></g><g fill="#292929" fill-opacity="1"><g transform="translate(241.209488, 106.644684)"><g><path d="M 3.84375 -0.609375 C 3.90625 -0.578125 3.953125 -0.53125 3.984375 -0.46875 C 4.015625 -0.414062 4.03125 -0.363281 4.03125 -0.3125 C 4.03125 -0.238281 4.003906 -0.171875 3.953125 -0.109375 C 3.890625 -0.0351562 3.796875 0 3.671875 0 C 3.566406 0 3.472656 -0.0195312 3.390625 -0.0625 C 3.097656 -0.226562 2.953125 -0.570312 2.953125 -1.09375 C 2.953125 -1.238281 2.898438 -1.351562 2.796875 -1.4375 C 2.703125 -1.53125 2.566406 -1.578125 2.390625 -1.578125 L 1.234375 -1.578125 L 1.234375 -0.375 C 1.234375 -0.257812 1.203125 -0.164062 1.140625 -0.09375 C 1.085938 -0.03125 1.007812 0 0.90625 0 C 0.789062 0 0.6875 -0.0351562 0.59375 -0.109375 C 0.507812 -0.179688 0.46875 -0.269531 0.46875 -0.375 L 0.46875 -3.9375 C 0.46875 -4.050781 0.5 -4.144531 0.5625 -4.21875 C 0.632812 -4.289062 0.726562 -4.328125 0.84375 -4.328125 L 2.609375 -4.328125 C 2.828125 -4.328125 3.03125 -4.265625 3.21875 -4.140625 C 3.40625 -4.023438 3.554688 -3.867188 3.671875 -3.671875 C 3.785156 -3.472656 3.84375 -3.25 3.84375 -3 C 3.84375 -2.789062 3.785156 -2.585938 3.671875 -2.390625 C 3.566406 -2.191406 3.425781 -2.035156 3.25 -1.921875 C 3.507812 -1.742188 3.648438 -1.503906 3.671875 -1.203125 C 3.679688 -1.128906 3.6875 -1.0625 3.6875 -1 C 3.707031 -0.875 3.722656 -0.78125 3.734375 -0.71875 C 3.753906 -0.664062 3.789062 -0.628906 3.84375 -0.609375 Z M 2.59375 -2.203125 C 2.664062 -2.203125 2.734375 -2.238281 2.796875 -2.3125 C 2.867188 -2.382812 2.925781 -2.476562 2.96875 -2.59375 C 3.019531 -2.707031 3.046875 -2.832031 3.046875 -2.96875 C 3.046875 -3.082031 3.019531 -3.1875 2.96875 -3.28125 C 2.925781 -3.382812 2.867188 -3.460938 2.796875 -3.515625 C 2.734375 -3.578125 2.664062 -3.609375 2.59375 -3.609375 L 1.234375 -3.609375 L 1.234375 -2.203125 Z M 2.59375 -2.203125 "/></g></g></g><g fill="#292929" fill-opacity="1"><g transform="translate(217.96326, 112.107622)"><g><path d="M 2.78125 -0.671875 C 2.875 -0.671875 2.953125 -0.640625 3.015625 -0.578125 C 3.085938 -0.515625 3.125 -0.429688 3.125 -0.328125 C 3.125 -0.234375 3.085938 -0.15625 3.015625 -0.09375 C 2.953125 -0.03125 2.875 0 2.78125 0 L 0.671875 0 C 0.566406 0 0.484375 -0.03125 0.421875 -0.09375 C 0.359375 -0.164062 0.328125 -0.253906 0.328125 -0.359375 C 0.328125 -0.453125 0.363281 -0.539062 0.4375 -0.625 L 1.796875 -2.0625 C 1.941406 -2.226562 2.054688 -2.394531 2.140625 -2.5625 C 2.234375 -2.726562 2.28125 -2.878906 2.28125 -3.015625 C 2.28125 -3.203125 2.210938 -3.363281 2.078125 -3.5 C 1.953125 -3.632812 1.800781 -3.703125 1.625 -3.703125 C 1.507812 -3.703125 1.390625 -3.660156 1.265625 -3.578125 C 1.148438 -3.503906 1.039062 -3.398438 0.9375 -3.265625 C 0.863281 -3.160156 0.769531 -3.109375 0.65625 -3.109375 C 0.5625 -3.109375 0.476562 -3.144531 0.40625 -3.21875 C 0.332031 -3.289062 0.296875 -3.367188 0.296875 -3.453125 C 0.296875 -3.515625 0.3125 -3.578125 0.34375 -3.640625 C 0.382812 -3.703125 0.445312 -3.773438 0.53125 -3.859375 C 0.6875 -4.015625 0.867188 -4.140625 1.078125 -4.234375 C 1.285156 -4.328125 1.484375 -4.375 1.671875 -4.375 C 1.941406 -4.375 2.179688 -4.316406 2.390625 -4.203125 C 2.597656 -4.085938 2.753906 -3.929688 2.859375 -3.734375 C 2.972656 -3.535156 3.03125 -3.304688 3.03125 -3.046875 C 3.03125 -2.796875 2.960938 -2.535156 2.828125 -2.265625 C 2.691406 -2.003906 2.515625 -1.753906 2.296875 -1.515625 L 1.5 -0.671875 Z M 2.78125 -0.671875 "/></g></g></g><g fill="#292929" fill-opacity="1"><g transform="translate(220.932271, 112.107622)"><g><path d="M 2.78125 -0.671875 C 2.875 -0.671875 2.953125 -0.640625 3.015625 -0.578125 C 3.085938 -0.515625 3.125 -0.429688 3.125 -0.328125 C 3.125 -0.234375 3.085938 -0.15625 3.015625 -0.09375 C 2.953125 -0.03125 2.875 0 2.78125 0 L 0.671875 0 C 0.566406 0 0.484375 -0.03125 0.421875 -0.09375 C 0.359375 -0.164062 0.328125 -0.253906 0.328125 -0.359375 C 0.328125 -0.453125 0.363281 -0.539062 0.4375 -0.625 L 1.796875 -2.0625 C 1.941406 -2.226562 2.054688 -2.394531 2.140625 -2.5625 C 2.234375 -2.726562 2.28125 -2.878906 2.28125 -3.015625 C 2.28125 -3.203125 2.210938 -3.363281 2.078125 -3.5 C 1.953125 -3.632812 1.800781 -3.703125 1.625 -3.703125 C 1.507812 -3.703125 1.390625 -3.660156 1.265625 -3.578125 C 1.148438 -3.503906 1.039062 -3.398438 0.9375 -3.265625 C 0.863281 -3.160156 0.769531 -3.109375 0.65625 -3.109375 C 0.5625 -3.109375 0.476562 -3.144531 0.40625 -3.21875 C 0.332031 -3.289062 0.296875 -3.367188 0.296875 -3.453125 C 0.296875 -3.515625 0.3125 -3.578125 0.34375 -3.640625 C 0.382812 -3.703125 0.445312 -3.773438 0.53125 -3.859375 C 0.6875 -4.015625 0.867188 -4.140625 1.078125 -4.234375 C 1.285156 -4.328125 1.484375 -4.375 1.671875 -4.375 C 1.941406 -4.375 2.179688 -4.316406 2.390625 -4.203125 C 2.597656 -4.085938 2.753906 -3.929688 2.859375 -3.734375 C 2.972656 -3.535156 3.03125 -3.304688 3.03125 -3.046875 C 3.03125 -2.796875 2.960938 -2.535156 2.828125 -2.265625 C 2.691406 -2.003906 2.515625 -1.753906 2.296875 -1.515625 L 1.5 -0.671875 Z M 2.78125 -0.671875 "/></g></g></g><g fill="#292929" fill-opacity="1"><g transform="translate(223.901282, 112.107622)"><g><path d="M 1.828125 -2.734375 C 2.054688 -2.734375 2.253906 -2.671875 2.421875 -2.546875 C 2.597656 -2.421875 2.734375 -2.257812 2.828125 -2.0625 C 2.921875 -1.863281 2.96875 -1.648438 2.96875 -1.421875 C 2.96875 -1.117188 2.898438 -0.851562 2.765625 -0.625 C 2.628906 -0.40625 2.4375 -0.234375 2.1875 -0.109375 C 1.945312 0.00390625 1.660156 0.0625 1.328125 0.0625 C 1.179688 0.0625 1.035156 0.0390625 0.890625 0 C 0.742188 -0.03125 0.613281 -0.078125 0.5 -0.140625 C 0.34375 -0.222656 0.265625 -0.332031 0.265625 -0.46875 C 0.265625 -0.570312 0.300781 -0.664062 0.375 -0.75 C 0.445312 -0.832031 0.53125 -0.875 0.625 -0.875 C 0.707031 -0.875 0.796875 -0.84375 0.890625 -0.78125 C 1.066406 -0.644531 1.265625 -0.578125 1.484375 -0.578125 C 1.609375 -0.578125 1.726562 -0.609375 1.84375 -0.671875 C 1.957031 -0.734375 2.050781 -0.820312 2.125 -0.9375 C 2.195312 -1.0625 2.234375 -1.203125 2.234375 -1.359375 C 2.234375 -1.585938 2.164062 -1.757812 2.03125 -1.875 C 1.894531 -2 1.734375 -2.0625 1.546875 -2.0625 C 1.460938 -2.0625 1.390625 -2.050781 1.328125 -2.03125 C 1.265625 -2.019531 1.226562 -2.015625 1.21875 -2.015625 C 1.113281 -1.984375 1.023438 -1.96875 0.953125 -1.96875 C 0.867188 -1.96875 0.796875 -2 0.734375 -2.0625 C 0.679688 -2.125 0.65625 -2.203125 0.65625 -2.296875 C 0.65625 -2.347656 0.664062 -2.394531 0.6875 -2.4375 C 0.707031 -2.488281 0.742188 -2.539062 0.796875 -2.59375 L 1.75 -3.640625 L 0.53125 -3.640625 C 0.425781 -3.640625 0.34375 -3.671875 0.28125 -3.734375 C 0.21875 -3.804688 0.1875 -3.890625 0.1875 -3.984375 C 0.1875 -4.078125 0.21875 -4.15625 0.28125 -4.21875 C 0.34375 -4.289062 0.425781 -4.328125 0.53125 -4.328125 L 2.421875 -4.328125 C 2.546875 -4.328125 2.640625 -4.289062 2.703125 -4.21875 C 2.765625 -4.144531 2.796875 -4.054688 2.796875 -3.953125 C 2.796875 -3.847656 2.75 -3.75 2.65625 -3.65625 Z M 1.828125 -2.734375 "/></g></g></g><g fill="#292929" fill-opacity="1"><g transform="translate(226.783871, 112.107622)"><g><path d="M 1.703125 -2.90625 C 1.972656 -2.90625 2.21875 -2.84375 2.4375 -2.71875 C 2.65625 -2.59375 2.828125 -2.421875 2.953125 -2.203125 C 3.078125 -1.984375 3.140625 -1.738281 3.140625 -1.46875 C 3.140625 -1.195312 3.0625 -0.941406 2.90625 -0.703125 C 2.75 -0.472656 2.539062 -0.285156 2.28125 -0.140625 C 2.019531 -0.00390625 1.738281 0.0625 1.4375 0.0625 C 1.28125 0.0625 1.113281 0.0351562 0.9375 -0.015625 C 0.769531 -0.0664062 0.632812 -0.132812 0.53125 -0.21875 C 0.476562 -0.257812 0.4375 -0.316406 0.40625 -0.390625 C 0.375 -0.460938 0.359375 -0.53125 0.359375 -0.59375 C 0.359375 -0.664062 0.390625 -0.734375 0.453125 -0.796875 C 0.515625 -0.859375 0.597656 -0.890625 0.703125 -0.890625 C 0.773438 -0.890625 0.867188 -0.847656 0.984375 -0.765625 C 1.148438 -0.660156 1.300781 -0.609375 1.4375 -0.609375 C 1.601562 -0.609375 1.757812 -0.644531 1.90625 -0.71875 C 2.0625 -0.800781 2.179688 -0.90625 2.265625 -1.03125 C 2.359375 -1.164062 2.40625 -1.3125 2.40625 -1.46875 C 2.40625 -1.6875 2.328125 -1.863281 2.171875 -2 C 2.015625 -2.144531 1.832031 -2.21875 1.625 -2.21875 C 1.53125 -2.21875 1.445312 -2.203125 1.375 -2.171875 C 1.300781 -2.148438 1.210938 -2.117188 1.109375 -2.078125 C 1.035156 -2.035156 0.976562 -2.003906 0.9375 -1.984375 C 0.894531 -1.972656 0.847656 -1.96875 0.796875 -1.96875 C 0.640625 -1.96875 0.523438 -2.007812 0.453125 -2.09375 C 0.390625 -2.1875 0.359375 -2.289062 0.359375 -2.40625 C 0.359375 -2.445312 0.359375 -2.476562 0.359375 -2.5 L 0.5625 -4.03125 C 0.570312 -4.113281 0.609375 -4.179688 0.671875 -4.234375 C 0.742188 -4.296875 0.828125 -4.328125 0.921875 -4.328125 L 2.703125 -4.328125 C 2.804688 -4.328125 2.890625 -4.289062 2.953125 -4.21875 C 3.023438 -4.15625 3.0625 -4.070312 3.0625 -3.96875 C 3.0625 -3.875 3.023438 -3.796875 2.953125 -3.734375 C 2.890625 -3.671875 2.804688 -3.640625 2.703125 -3.640625 L 1.171875 -3.640625 L 1.0625 -2.75 C 1.132812 -2.789062 1.226562 -2.828125 1.34375 -2.859375 C 1.46875 -2.890625 1.585938 -2.90625 1.703125 -2.90625 Z M 1.703125 -2.90625 "/></g></g></g><g fill="#292929" fill-opacity="1"><g transform="translate(230.018296, 112.107622)"><g><path d="M 1.421875 -4.328125 C 1.523438 -4.328125 1.609375 -4.289062 1.671875 -4.21875 C 1.742188 -4.144531 1.78125 -4.050781 1.78125 -3.9375 L 1.78125 -0.375 C 1.78125 -0.269531 1.738281 -0.179688 1.65625 -0.109375 C 1.582031 -0.0351562 1.488281 0 1.375 0 C 1.257812 0 1.164062 -0.0351562 1.09375 -0.109375 C 1.019531 -0.179688 0.984375 -0.269531 0.984375 -0.375 L 0.984375 -3.296875 L 0.59375 -3.0625 C 0.53125 -3.03125 0.46875 -3.015625 0.40625 -3.015625 C 0.300781 -3.015625 0.210938 -3.050781 0.140625 -3.125 C 0.0664062 -3.207031 0.03125 -3.296875 0.03125 -3.390625 C 0.03125 -3.453125 0.046875 -3.507812 0.078125 -3.5625 C 0.117188 -3.625 0.164062 -3.671875 0.21875 -3.703125 L 1.15625 -4.265625 C 1.226562 -4.304688 1.316406 -4.328125 1.421875 -4.328125 Z M 1.421875 -4.328125 "/></g></g></g><g fill="#292929" fill-opacity="1"><g transform="translate(231.92562, 112.107622)"><g><path d="M 1.890625 0.0625 C 1.546875 0.0625 1.25 -0.03125 1 -0.21875 C 0.75 -0.40625 0.5625 -0.664062 0.4375 -1 C 0.3125 -1.332031 0.25 -1.71875 0.25 -2.15625 C 0.25 -2.601562 0.3125 -2.992188 0.4375 -3.328125 C 0.5625 -3.660156 0.75 -3.914062 1 -4.09375 C 1.25 -4.28125 1.546875 -4.375 1.890625 -4.375 C 2.234375 -4.375 2.53125 -4.28125 2.78125 -4.09375 C 3.03125 -3.914062 3.21875 -3.660156 3.34375 -3.328125 C 3.476562 -2.992188 3.546875 -2.601562 3.546875 -2.15625 C 3.546875 -1.71875 3.476562 -1.332031 3.34375 -1 C 3.21875 -0.664062 3.03125 -0.40625 2.78125 -0.21875 C 2.53125 -0.03125 2.234375 0.0625 1.890625 0.0625 Z M 1.890625 -0.671875 C 2.160156 -0.671875 2.367188 -0.796875 2.515625 -1.046875 C 2.660156 -1.304688 2.734375 -1.675781 2.734375 -2.15625 C 2.734375 -2.644531 2.660156 -3.015625 2.515625 -3.265625 C 2.367188 -3.515625 2.160156 -3.640625 1.890625 -3.640625 C 1.628906 -3.640625 1.421875 -3.515625 1.265625 -3.265625 C 1.117188 -3.015625 1.046875 -2.644531 1.046875 -2.15625 C 1.046875 -1.675781 1.117188 -1.304688 1.265625 -1.046875 C 1.421875 -0.796875 1.628906 -0.671875 1.890625 -0.671875 Z M 1.890625 -0.671875 "/></g></g></g><g fill="#292929" fill-opacity="1"><g transform="translate(235.37609, 112.107622)"><g><path d="M 2.640625 -2.25 C 2.835938 -2.132812 2.988281 -1.988281 3.09375 -1.8125 C 3.207031 -1.644531 3.265625 -1.472656 3.265625 -1.296875 C 3.265625 -1.054688 3.195312 -0.835938 3.0625 -0.640625 C 2.9375 -0.441406 2.757812 -0.285156 2.53125 -0.171875 C 2.3125 -0.0546875 2.070312 0 1.8125 0 C 1.550781 0 1.3125 -0.0546875 1.09375 -0.171875 C 0.875 -0.285156 0.695312 -0.441406 0.5625 -0.640625 C 0.4375 -0.835938 0.375 -1.054688 0.375 -1.296875 C 0.375 -1.679688 0.570312 -2 0.96875 -2.25 C 0.820312 -2.332031 0.703125 -2.441406 0.609375 -2.578125 C 0.515625 -2.722656 0.46875 -2.890625 0.46875 -3.078125 C 0.46875 -3.304688 0.523438 -3.515625 0.640625 -3.703125 C 0.765625 -3.890625 0.925781 -4.039062 1.125 -4.15625 C 1.332031 -4.269531 1.5625 -4.328125 1.8125 -4.328125 C 2.0625 -4.328125 2.285156 -4.269531 2.484375 -4.15625 C 2.691406 -4.039062 2.851562 -3.890625 2.96875 -3.703125 C 3.082031 -3.515625 3.140625 -3.304688 3.140625 -3.078125 C 3.140625 -2.867188 3.09375 -2.695312 3 -2.5625 C 2.90625 -2.4375 2.785156 -2.332031 2.640625 -2.25 Z M 1.8125 -3.640625 C 1.644531 -3.640625 1.503906 -3.582031 1.390625 -3.46875 C 1.273438 -3.363281 1.21875 -3.226562 1.21875 -3.0625 C 1.21875 -2.894531 1.273438 -2.753906 1.390625 -2.640625 C 1.503906 -2.535156 1.644531 -2.484375 1.8125 -2.484375 C 1.976562 -2.484375 2.117188 -2.539062 2.234375 -2.65625 C 2.347656 -2.769531 2.40625 -2.90625 2.40625 -3.0625 C 2.40625 -3.226562 2.347656 -3.363281 2.234375 -3.46875 C 2.117188 -3.582031 1.976562 -3.640625 1.8125 -3.640625 Z M 1.8125 -0.671875 C 2.007812 -0.671875 2.175781 -0.734375 2.3125 -0.859375 C 2.445312 -0.984375 2.515625 -1.128906 2.515625 -1.296875 C 2.515625 -1.472656 2.445312 -1.625 2.3125 -1.75 C 2.175781 -1.875 2.007812 -1.9375 1.8125 -1.9375 C 1.613281 -1.9375 1.445312 -1.875 1.3125 -1.75 C 1.175781 -1.625 1.109375 -1.472656 1.109375 -1.296875 C 1.109375 -1.128906 1.175781 -0.984375 1.3125 -0.859375 C 1.445312 -0.734375 1.613281 -0.671875 1.8125 -0.671875 Z M 1.8125 -0.671875 "/></g></g></g><g fill="#292929" fill-opacity="1"><g transform="translate(238.666069, 112.107622)"><g><path d="M 1.828125 -2.734375 C 2.054688 -2.734375 2.253906 -2.671875 2.421875 -2.546875 C 2.597656 -2.421875 2.734375 -2.257812 2.828125 -2.0625 C 2.921875 -1.863281 2.96875 -1.648438 2.96875 -1.421875 C 2.96875 -1.117188 2.898438 -0.851562 2.765625 -0.625 C 2.628906 -0.40625 2.4375 -0.234375 2.1875 -0.109375 C 1.945312 0.00390625 1.660156 0.0625 1.328125 0.0625 C 1.179688 0.0625 1.035156 0.0390625 0.890625 0 C 0.742188 -0.03125 0.613281 -0.078125 0.5 -0.140625 C 0.34375 -0.222656 0.265625 -0.332031 0.265625 -0.46875 C 0.265625 -0.570312 0.300781 -0.664062 0.375 -0.75 C 0.445312 -0.832031 0.53125 -0.875 0.625 -0.875 C 0.707031 -0.875 0.796875 -0.84375 0.890625 -0.78125 C 1.066406 -0.644531 1.265625 -0.578125 1.484375 -0.578125 C 1.609375 -0.578125 1.726562 -0.609375 1.84375 -0.671875 C 1.957031 -0.734375 2.050781 -0.820312 2.125 -0.9375 C 2.195312 -1.0625 2.234375 -1.203125 2.234375 -1.359375 C 2.234375 -1.585938 2.164062 -1.757812 2.03125 -1.875 C 1.894531 -2 1.734375 -2.0625 1.546875 -2.0625 C 1.460938 -2.0625 1.390625 -2.050781 1.328125 -2.03125 C 1.265625 -2.019531 1.226562 -2.015625 1.21875 -2.015625 C 1.113281 -1.984375 1.023438 -1.96875 0.953125 -1.96875 C 0.867188 -1.96875 0.796875 -2 0.734375 -2.0625 C 0.679688 -2.125 0.65625 -2.203125 0.65625 -2.296875 C 0.65625 -2.347656 0.664062 -2.394531 0.6875 -2.4375 C 0.707031 -2.488281 0.742188 -2.539062 0.796875 -2.59375 L 1.75 -3.640625 L 0.53125 -3.640625 C 0.425781 -3.640625 0.34375 -3.671875 0.28125 -3.734375 C 0.21875 -3.804688 0.1875 -3.890625 0.1875 -3.984375 C 0.1875 -4.078125 0.21875 -4.15625 0.28125 -4.21875 C 0.34375 -4.289062 0.425781 -4.328125 0.53125 -4.328125 L 2.421875 -4.328125 C 2.546875 -4.328125 2.640625 -4.289062 2.703125 -4.21875 C 2.765625 -4.144531 2.796875 -4.054688 2.796875 -3.953125 C 2.796875 -3.847656 2.75 -3.75 2.65625 -3.65625 Z M 1.828125 -2.734375 "/></g></g></g><g fill="#292929" fill-opacity="1"><g transform="translate(241.548657, 112.107622)"><g><path d="M 1.6875 -4.40625 C 1.96875 -4.40625 2.21875 -4.320312 2.4375 -4.15625 C 2.664062 -4 2.835938 -3.789062 2.953125 -3.53125 C 3.078125 -3.28125 3.140625 -3.007812 3.140625 -2.71875 C 3.140625 -2.414062 3.085938 -2.082031 2.984375 -1.71875 C 2.878906 -1.363281 2.6875 -1.023438 2.40625 -0.703125 C 2.125 -0.378906 1.742188 -0.148438 1.265625 -0.015625 C 1.222656 -0.00390625 1.175781 0 1.125 0 C 1.019531 0 0.929688 -0.0234375 0.859375 -0.078125 C 0.796875 -0.140625 0.765625 -0.226562 0.765625 -0.34375 C 0.765625 -0.4375 0.789062 -0.515625 0.84375 -0.578125 C 0.90625 -0.648438 0.988281 -0.703125 1.09375 -0.734375 C 1.34375 -0.804688 1.578125 -0.9375 1.796875 -1.125 C 2.023438 -1.3125 2.191406 -1.535156 2.296875 -1.796875 C 2.085938 -1.617188 1.851562 -1.53125 1.59375 -1.53125 C 1.375 -1.53125 1.160156 -1.59375 0.953125 -1.71875 C 0.742188 -1.851562 0.570312 -2.03125 0.4375 -2.25 C 0.3125 -2.476562 0.25 -2.71875 0.25 -2.96875 C 0.25 -3.226562 0.3125 -3.46875 0.4375 -3.6875 C 0.570312 -3.90625 0.75 -4.078125 0.96875 -4.203125 C 1.1875 -4.335938 1.425781 -4.40625 1.6875 -4.40625 Z M 1.6875 -2.21875 C 1.882812 -2.21875 2.046875 -2.285156 2.171875 -2.421875 C 2.304688 -2.566406 2.375 -2.75 2.375 -2.96875 C 2.375 -3.1875 2.304688 -3.363281 2.171875 -3.5 C 2.046875 -3.644531 1.882812 -3.71875 1.6875 -3.71875 C 1.488281 -3.71875 1.320312 -3.644531 1.1875 -3.5 C 1.050781 -3.363281 0.984375 -3.1875 0.984375 -2.96875 C 0.984375 -2.75 1.050781 -2.566406 1.1875 -2.421875 C 1.320312 -2.285156 1.488281 -2.21875 1.6875 -2.21875 Z M 1.6875 -2.21875 "/></g></g></g></svg>